<svg xmlns="http://www.w3.org/2000/svg" width="145" height="57" fill="none" aria-hidden="true" class="inline-block" viewBox="0 0 145 57"><g clip-path="url(#a)"><g filter="url(#b)"><path fill="#fcf9f0" d="m117.697 51.823.137-20.452a15.9 15.9 0 0 0 7.183 1.764c8.704.059 15.811-6.856 15.87-15.447.059-8.585-6.952-15.594-15.662-15.652-8.704-.059-15.81 6.856-15.87 15.447l-.231 34.287 8.573.059zm7.492-41.349c3.981.024 7.19 3.235 7.166 7.161s-3.28 7.09-7.261 7.067c-3.98-.023-7.189-3.234-7.165-7.16s3.28-7.091 7.26-7.068"/></g><g filter="url(#c)"><path fill="#fcf9f0" d="m46.41 33.176.108-15.547c.023-3.926 3.28-7.09 7.26-7.067 3.981.024 7.19 3.235 7.166 7.161l-.107 15.547 8.55.058.107-15.546c.059-8.585-6.952-15.594-15.662-15.653-8.705-.058-15.81 6.857-15.87 15.448l-.107 15.546 8.55.059z"/></g><g filter="url(#d)"><path fill="#fcf9f0" d="m96.556 20.864-.107 15.547c-.023 3.926-3.28 7.09-7.26 7.067s-7.19-3.235-7.166-7.161l.107-15.547-8.55-.058-.106 15.546c-.054 8.585 6.957 15.594 15.661 15.653 8.705.058 15.811-6.857 15.87-15.447l.107-15.547-8.55-.059z"/></g><g filter="url(#e)"><path fill="#fcf9f0" d="M25.247 2.089 25.11 22.54a15.9 15.9 0 0 0-7.183-1.764c-8.704-.052-15.81 6.862-15.87 15.447s6.952 15.594 15.662 15.653c8.704.058 15.81-6.857 15.87-15.447L33.82 2.14l-8.573-.058zm-7.492 41.348c-3.981-.023-7.19-3.235-7.166-7.16.024-3.927 3.28-7.092 7.26-7.068 3.981.023 7.19 3.235 7.166 7.16-.024 3.927-3.28 7.092-7.26 7.068"/></g></g><defs><filter id="b" width="34.764" height="52.793" x="109.124" y="2.035" color-interpolation-filters="sRGB" filterUnits="userSpaceOnUse"><feFlood flood-opacity="0" result="BackgroundImageFix"/><feColorMatrix in="SourceAlpha" result="hardAlpha" values="0 0 0 0 0 0 0 0 0 0 0 0 0 0 0 0 0 0 127 0"/><feOffset dx="3" dy="3"/><feComposite in2="hardAlpha" operator="out"/><feColorMatrix values="0 0 0 0 0.0980392 0 0 0 0 0.0901961 0 0 0 0 0.0901961 0 0 0 1 0"/><feBlend in2="BackgroundImageFix" result="effect1_dropShadow_475_5201"/><feBlend in="SourceGraphic" in2="effect1_dropShadow_475_5201" result="shape"/></filter><filter id="c" width="34.639" height="34.199" x="37.855" y="2.129" color-interpolation-filters="sRGB" filterUnits="userSpaceOnUse"><feFlood flood-opacity="0" result="BackgroundImageFix"/><feColorMatrix in="SourceAlpha" result="hardAlpha" values="0 0 0 0 0 0 0 0 0 0 0 0 0 0 0 0 0 0 127 0"/><feOffset dx="3" dy="3"/><feComposite in2="hardAlpha" operator="out"/><feColorMatrix values="0 0 0 0 0.0980392 0 0 0 0 0.0901961 0 0 0 0 0.0901961 0 0 0 1 0"/><feBlend in2="BackgroundImageFix" result="effect1_dropShadow_475_5201"/><feBlend in="SourceGraphic" in2="effect1_dropShadow_475_5201" result="shape"/></filter><filter id="d" width="34.639" height="34.199" x="73.473" y="20.712" color-interpolation-filters="sRGB" filterUnits="userSpaceOnUse"><feFlood flood-opacity="0" result="BackgroundImageFix"/><feColorMatrix in="SourceAlpha" result="hardAlpha" values="0 0 0 0 0 0 0 0 0 0 0 0 0 0 0 0 0 0 127 0"/><feOffset dx="3" dy="3"/><feComposite in2="hardAlpha" operator="out"/><feColorMatrix values="0 0 0 0 0.0980392 0 0 0 0 0.0901961 0 0 0 0 0.0901961 0 0 0 1 0"/><feBlend in2="BackgroundImageFix" result="effect1_dropShadow_475_5201"/><feBlend in="SourceGraphic" in2="effect1_dropShadow_475_5201" result="shape"/></filter><filter id="e" width="34.764" height="52.793" x="2.057" y="2.083" color-interpolation-filters="sRGB" filterUnits="userSpaceOnUse"><feFlood flood-opacity="0" result="BackgroundImageFix"/><feColorMatrix in="SourceAlpha" result="hardAlpha" values="0 0 0 0 0 0 0 0 0 0 0 0 0 0 0 0 0 0 127 0"/><feOffset dx="3" dy="3"/><feComposite in2="hardAlpha" operator="out"/><feColorMatrix values="0 0 0 0 0.0980392 0 0 0 0 0.0901961 0 0 0 0 0.0901961 0 0 0 1 0"/><feBlend in2="BackgroundImageFix" result="effect1_dropShadow_475_5201"/><feBlend in="SourceGraphic" in2="effect1_dropShadow_475_5201" result="shape"/></filter><clipPath id="a"><path fill="#fff" d="M0 57V0h145v57z"/></clipPath></defs></svg>